<?xml version="1.0" encoding="utf-8"?>
<!-- Generator: Adobe Illustrator 23.0.4, SVG Export Plug-In . SVG Version: 6.00 Build 0)  -->
<svg version="1.1" id="Layer_1" xmlns="http://www.w3.org/2000/svg" xmlns:xlink="http://www.w3.org/1999/xlink" x="0px" y="0px"
	 viewBox="0 0 24 24" style="enable-background:new 0 0 24 24;" xml:space="preserve">
<style type="text/css">
	.st0{fill:#D47270;}
</style>
<path class="st0" d="M17,17c-1.4,0-2.2,0.4-2.9,0.8c-0.6,0.3-1.2,0.6-2.1,0.6c-0.9,0-1.4-0.2-2.1-0.6C9.2,17.4,8.4,17,7,17
	s-2.2,0.4-2.9,0.8c-0.7,0.3-1.2,0.6-2,0.6v2c1.4,0,2.2-0.4,3-0.8c0.7-0.3,1.2-0.6,2-0.6s1.4,0.2,2.1,0.6c0.8,0.4,1.6,0.8,2.9,0.8
	s2.2-0.4,2.9-0.8c0.6-0.3,1.2-0.6,2.1-0.6c0.9,0,1.4,0.2,2,0.6c0.8,0.4,1.6,0.8,3,0.8v-2c-0.9,0-1.4-0.2-2-0.6
	C19.2,17.4,18.4,17,17,17z M17,12.5c-1.4,0-2.2,0.4-2.9,0.8c-0.6,0.3-1.2,0.6-2.1,0.6c-0.9,0-1.4-0.2-2.1-0.6
	C9.2,13,8.4,12.5,7,12.5S4.8,13,4.1,13.3c-0.7,0.3-1.2,0.6-2,0.6v1.9c1.4,0,2.2-0.4,3-0.8c0.7-0.4,1.2-0.6,2-0.6s1.4,0.2,2.1,0.6
	c0.8,0.4,1.6,0.8,2.9,0.8s2.2-0.4,2.9-0.8c0.6-0.4,1.2-0.6,2.1-0.6s1.4,0.2,2,0.6c0.8,0.4,1.6,0.8,3,0.8v-1.9c-0.9,0-1.4-0.2-2-0.6
	C19.2,13,18.4,12.5,17,12.5z M20,4.5c-0.8-0.4-1.6-0.8-3-0.8s-2.2,0.4-2.9,0.8c-0.6,0.3-1.2,0.6-2.1,0.6c-0.9,0-1.4-0.2-2.1-0.6
	C9.2,4.1,8.4,3.7,7,3.7S4.8,4.1,4.1,4.5C3.4,4.8,2.9,5.1,2,5.1V7c1.4,0,2.2-0.4,3-0.8c0.7-0.3,1.2-0.6,2-0.6s1.4,0.2,2.1,0.6
	C9.8,6.6,10.6,7,12,7s2.2-0.4,2.9-0.8c0.6-0.3,1.2-0.6,2.1-0.6c0.9,0,1.4,0.2,2,0.6C19.8,6.6,20.6,7,22,7V5C21.1,5,20.6,4.8,20,4.5z
	 M17,8.1c-1.4,0-2.2,0.4-2.9,0.8c-0.6,0.4-1.1,0.6-2.1,0.6s-1.4-0.2-2.1-0.6C9.2,8.5,8.4,8.1,7,8.1S4.8,8.5,4.1,8.9
	C3.4,9.2,2.9,9.5,2,9.5v1.9c1.4,0,2.2-0.4,3-0.8C5.6,10.3,6.1,10,7,10s1.4,0.2,2.1,0.6c0.8,0.4,1.6,0.8,2.9,0.8s2.2-0.4,2.9-0.8
	c0.6-0.3,1.2-0.6,2.1-0.6c0.9,0,1.4,0.2,2,0.6c0.8,0.4,1.6,0.8,3,0.8v-2c-0.9,0-1.4-0.2-2-0.6C19.2,8.5,18.4,8.1,17,8.1z"/>
</svg>
