<?xml version="1.0" encoding="utf-8"?>
<!-- Generator: Adobe Illustrator 23.0.4, SVG Export Plug-In . SVG Version: 6.00 Build 0)  -->
<svg version="1.1" id="Layer_1" xmlns="http://www.w3.org/2000/svg" xmlns:xlink="http://www.w3.org/1999/xlink" x="0px" y="0px"
	 viewBox="0 0 24 24" style="enable-background:new 0 0 24 24;" xml:space="preserve">
<style type="text/css">
	.st0{fill:#D47270;}
	.st1{fill:none;}
</style>
<path class="st0" d="M13.1,14.6l1.4-1.4l6.4,6.4L19.6,21L13.1,14.6z M17.4,8.8L20.3,6C16.3,2,9.9,2,6,6C9.9,4.7,14.3,5.7,17.4,8.8z
	 M5.9,6C2,9.9,2,16.3,6,20.3l2.9-2.9C5.7,14.3,4.7,9.9,5.9,6z M6,6L6,6c-0.4,3,1.2,6.9,4.3,10l5.7-5.7C12.9,7.1,9,5.6,6,6z"/>
<path class="st1" d="M0,0h24v24H0V0z"/>
</svg>
